# xmcd
#
# Track frame offsets:
#	150
#	14893
#	34743
#	49291
#	60830
#	71329
#	84444
#	96001
#	106964
#	119942
#	134553
#	148759
#	161634
#	171560
#	186828
#	199678
#	211892
#	226003
#	236353
#	246255
#	257318
#	268628
#	280351
#	289082
#	298778
#
# Disc length: 4158 seconds
#
# Revision: 1
# Processed by: cddbd v1.5.2PL0 Copyright (c) Steve Scherf et al.
# Submitted via: audiograbber 1.83.01
#
DISCID=7d103c19
DTITLE=Various Artist - The Yellow Rose of Texas - CD 2 Take me home, Country 
DTITLE=roads
DYEAR=2008
DGENRE=Country
TTITLE0=John Denver - Take me home, Country roads
TTITLE1=Jimmy Landis - The Coward of the country
TTITLE2=Louis Nunley/The Nashville Sounds - Sixteen tons
TTITLE3=Patsy Cline - I´ve loved and lost again
TTITLE4=Frank Saunders - Oh, my darling Clementine
TTITLE5=Merle Haggard - Kentucky Gambler
TTITLE6=Bobby Sykes - Oh lonesome me
TTITLE7=DonReno and Bobby Thompson und The Cripple Creek Quartet - Dueling Banjos
TTITLE8=Merle Haggard - The fightin´ side of me
TTITLE9=Bobby Perkins - Summertime blues
TTITLE10=John Brack - The Wabash Cannonball
TTITLE11=Rebecca Holden - I´m in the gloryday way
TTITLE12=The Kendalls - I had a lovely time
TTITLE13=Dough Hawkins - Achy breaky heart
TTITLE14=Billie Jo Spears - What i´ve got in mind
TTITLE15=Merle Haggard - I take a lot of pride in what i am
TTITLE16=Lee Greenwood - Dixie road
TTITLE17=Patsy Cline - Pick me up on your way down
TTITLE18=Gene Martin - Texas for me
TTITLE19=George McCormick - Hey good lookin´
TTITLE20=The Kendalls - Bye bye love
TTITLE21=Patsy Cline - Walkin´ after midnight
TTITLE22=John Brack - Oh Susanna!
TTITLE23=George McCormick - Jambalaya
TTITLE24=Conway Twitty - After all the good is gone
EXTD=
EXTT0=
EXTT1=
EXTT2=
EXTT3=
EXTT4=
EXTT5=
EXTT6=
EXTT7=
EXTT8=
EXTT9=
EXTT10=
EXTT11=
EXTT12=
EXTT13=
EXTT14=
EXTT15=
EXTT16=
EXTT17=
EXTT18=
EXTT19=
EXTT20=
EXTT21=
EXTT22=
EXTT23=
EXTT24=
PLAYORDER=
